<svg xmlns="http://www.w3.org/2000/svg" id="02-solution-3-figure" width="330" height="260" viewBox="0 0 330 260">
  <defs>
    <clipPath id="02-solution-3-__clipPath-0">
      <rect x="25.0" y="5.0" width="300.0" height="250.0"/>
    </clipPath>
    <clipPath id="02-solution-3-__clipPath-1">
      <rect x="25.0" y="5.0" width="300.0" height="250.0"/>
    </clipPath>
  </defs>
  <g id="02-solution-3-grid-axes">
    <g id="02-solution-3-grid" stroke="#ccc" stroke-width="1">
      <line x1="25.0" y1="255.0" x2="25.0" y2="5.0"/>
      <line x1="55.0" y1="255.0" x2="55.0" y2="5.0"/>
      <line x1="85.0" y1="255.0" x2="85.0" y2="5.0"/>
      <line x1="115.0" y1="255.0" x2="115.0" y2="5.0"/>
      <line x1="145.0" y1="255.0" x2="145.0" y2="5.0"/>
      <line x1="175.0" y1="255.0" x2="175.0" y2="5.0"/>
      <line x1="205.0" y1="255.0" x2="205.0" y2="5.0"/>
      <line x1="235.0" y1="255.0" x2="235.0" y2="5.0"/>
      <line x1="265.0" y1="255.0" x2="265.0" y2="5.0"/>
      <line x1="295.0" y1="255.0" x2="295.0" y2="5.0"/>
      <line x1="325.0" y1="255.0" x2="325.0" y2="5.0"/>
      <line x1="25.0" y1="255.0" x2="325.0" y2="255.0"/>
      <line x1="25.0" y1="230.0" x2="325.0" y2="230.0"/>
      <line x1="25.0" y1="205.0" x2="325.0" y2="205.0"/>
      <line x1="25.0" y1="180.0" x2="325.0" y2="180.0"/>
      <line x1="25.0" y1="155.0" x2="325.0" y2="155.0"/>
      <line x1="25.0" y1="130.0" x2="325.0" y2="130.0"/>
      <line x1="25.0" y1="105.0" x2="325.0" y2="105.0"/>
      <line x1="25.0" y1="80.0" x2="325.0" y2="80.0"/>
      <line x1="25.0" y1="55.0" x2="325.0" y2="55.0"/>
      <line x1="25.0" y1="30.0" x2="325.0" y2="30.0"/>
      <line x1="25.0" y1="5.0" x2="325.0" y2="5.0"/>
    </g>
    <g id="02-solution-3-axes" stroke="black" stroke-width="2">
      <line id="02-solution-3-__line-22" x1="25.0" y1="130.0" x2="325.0" y2="130.0" stroke="black" stroke-width="2"/>
      <line id="02-solution-3-__line-23" x1="175.0" y1="255.0" x2="175.0" y2="5.0" stroke="black" stroke-width="2"/>
    </g>
  </g>
  <path id="02-solution-3-__path-0" stroke="blue" stroke-width="2" fill="none" d="M 25.0 280.0 L 28.0 270.1 L 31.0 260.5 L 34.0 251.1 L 37.0 242.0 L 40.0 233.1 L 43.0 224.5 L 46.0 216.1 L 49.0 208.0 L 52.0 200.1 L 55.0 192.5 L 58.0 185.1 L 61.0 178.0 L 64.0 171.1 L 67.0 164.5 L 70.0 158.1 L 73.0 152.0 L 76.0 146.1 L 79.0 140.5 L 82.0 135.1 L 85.0 130.0 L 88.0 125.1 L 91.0 120.5 L 94.0 116.1 L 97.0 112.0 L 100.0 108.1 L 103.0 104.5 L 106.0 101.1 L 109.0 98.0 L 112.0 95.1 L 115.0 92.5 L 118.0 90.1 L 121.0 88.0 L 124.0 86.1 L 127.0 84.5 L 130.0 83.1 L 133.0 82.0 L 136.0 81.1 L 139.0 80.5 L 142.0 80.1 L 145.0 80.0 L 148.0 80.1 L 151.0 80.5 L 154.0 81.1 L 157.0 82.0 L 160.0 83.1 L 163.0 84.5 L 166.0 86.1 L 169.0 88.0 L 172.0 90.1 L 175.0 92.5 L 178.0 95.1 L 181.0 98.0 L 184.0 101.1 L 187.0 104.5 L 190.0 108.1 L 193.0 112.0 L 196.0 116.1 L 199.0 120.5 L 202.0 125.1 L 205.0 130.0 L 208.0 135.1 L 211.0 140.5 L 214.0 146.1 L 217.0 152.0 L 220.0 158.1 L 223.0 164.5 L 226.0 171.1 L 229.0 178.0 L 232.0 185.1 L 235.0 192.5 L 238.0 200.1 L 241.0 208.0 L 244.0 216.1 L 247.0 224.5 L 250.0 233.1 L 253.0 242.0 L 256.0 251.1 L 259.0 260.5 L 262.0 270.1 L 265.0 280.0 L 268.0 290.1 L 271.0 300.5 L 274.0 311.1 L 277.0 322.0 L 280.0 333.1 L 283.0 344.5 L 286.0 356.1 L 289.0 368.0 L 292.0 380.1 L 295.0 392.5 L 298.0 405.1 L 301.0 418.0 L 304.0 431.1 L 307.0 444.5 L 310.0 458.1 L 313.0 472.0 L 316.0 486.1 L 319.0 500.5" clip-path="url(#02-solution-3-__clipPath-1)"/>
</svg>
