<svg xmlns="http://www.w3.org/2000/svg" id="14-plate-1-figure" width="150" height="230" viewBox="0 0 150 230">
  <defs>
    <clipPath id="14-plate-1-__clipPath-0">
      <rect x="5.0" y="5.0" width="140.0" height="200.0"/>
    </clipPath>
    <clipPath id="14-plate-1-__clipPath-1">
      <rect x="5.0" y="5.0" width="140.0" height="200.0"/>
    </clipPath>
  </defs>
  <g id="14-plate-1-axes" stroke="black" stroke-width="2">
    <line id="14-plate-1-__line-0" x1="5.0" y1="205.0" x2="145.0" y2="205.0" stroke="black" stroke-width="2"/>
    <g>
      <line id="14-plate-1-__line-1" x1="125.0" y1="208.0" x2="125.0" y2="202.0"/>
    </g>
    <line id="14-plate-1-__line-2" x1="25.0" y1="205.0" x2="25.0" y2="5.0" stroke="black" stroke-width="2"/>
    <g>
      <line id="14-plate-1-__line-3" x1="22.0" y1="105.0" x2="28.0" y2="105.0"/>
      <line id="14-plate-1-__line-4" x1="22.0" y1="5.0" x2="28.0" y2="5.0"/>
    </g>
  </g>
  <g id="14-plate-1-__label-0" transform="translate(141.0,201.0) translate(-10.4,-8.2)">
    <g id="14-plate-1-__g-0">
      <svg xmlns:xlink="http://www.w3.org/1999/xlink" style="vertical-align: -0.200px" width="10.352px" height="8.200px" role="img" focusable="false" viewBox="0 -442 572 453" x="0.0" y="0.0">
        <defs>
          <path id="14-plate-1-MJX-2-NCM-I-1D465" d="M527 373C527 419 482 442 432 442C389 442 355 419 329 373C308 419 273 442 222 442C173 442 133 419 101 374C74 335 60 306 60 287C60 278 65 273 75 273C84 273 90 278 92 287C111 345 153 413 220 413C253 413 269 392 269 351C269 330 251 252 216 118C199 51 169 18 126 18C112 18 99 21 88 26C114 36 127 54 127 80C127 106 114 119 87 119C54 119 29 91 29 58C29 12 76-11 125-11C167-11 201 12 228 58C247 12 283-11 335-11C383-11 423 12 455 57C482 96 496 125 496 144C496 153 491 158 481 158C472 158 467 153 464 144C447 87 402 18 337 18C304 18 287 38 287 79C287 92 292 120 303 165L337 300C356 375 387 413 431 413C445 413 458 410 469 405C442 396 429 378 429 351C429 325 443 312 470 312C502 312 527 341 527 373Z"/>
        </defs>
        <g stroke="currentColor" fill="currentColor" stroke-width="0" transform="scale(1,-1)">
          <g data-mml-node="math">
            <g data-mml-node="mi" data-semantic-type="identifier" data-semantic-role="latinletter" data-semantic-font="italic" data-semantic-annotation="clearspeak:simple;nemeth:number;depth:1" data-semantic-id="0" data-semantic-attributes="latex:x" data-semantic-speech="x">
              <use data-c="1D465" xlink:href="#14-plate-1-MJX-2-NCM-I-1D465"/>
            </g>
          </g>
        </g>
      </svg>
    </g>
  </g>
  <g id="14-plate-1-__label-1" transform="translate(29.0,9.0) translate(0.0,-0.0)">
    <g id="14-plate-1-__g-1">
      <svg xmlns:xlink="http://www.w3.org/1999/xlink" style="vertical-align: -3.712px" width="8.872px" height="11.712px" role="img" focusable="false" viewBox="0 -442 490 647" x="0.0" y="0.0">
        <defs>
          <path id="14-plate-1-MJX-3-NCM-I-1D466" d="M163 442C118 442 83 417 58 367C39 328 29 301 29 286C29 277 34 272 45 272C59 272 60 278 64 293C87 372 119 412 160 412C173 412 180 403 180 385C180 369 175 346 164 317C126 214 107 145 107 108C107 32 154-13 231-13C264-13 295-1 323 23C288-109 233-175 158-175C124-175 101-164 89-142C129-140 149-121 149-85C149-60 136-47 109-47C72-47 50-78 50-115C50-170 100-205 158-205C273-205 367-99 392-1L486 377C489 388 490 396 490 401C490 421 479 431 458 431C442 431 429 423 420 408C414 387 409 369 406 354L342 97C332 61 279 16 234 16C196 16 177 41 177 92C177 134 194 198 227 284C240 319 247 343 247 357C247 406 212 442 163 442Z"/>
        </defs>
        <g stroke="currentColor" fill="currentColor" stroke-width="0" transform="scale(1,-1)">
          <g data-mml-node="math">
            <g data-mml-node="mi" data-semantic-type="identifier" data-semantic-role="latinletter" data-semantic-font="italic" data-semantic-annotation="clearspeak:simple;nemeth:number;depth:1" data-semantic-id="0" data-semantic-attributes="latex:y" data-semantic-speech="y">
              <use data-c="1D466" xlink:href="#14-plate-1-MJX-3-NCM-I-1D466"/>
            </g>
          </g>
        </g>
      </svg>
    </g>
  </g>
  <g id="14-plate-1-__label-2" transform="translate(125.0,216.0) translate(-4.5,-0.0)">
    <g id="14-plate-1-__g-2">
      <svg xmlns:xlink="http://www.w3.org/1999/xlink" style="vertical-align: 0.000px" width="9.048px" height="12.056px" role="img" focusable="false" viewBox="0 -666 500 666" x="0.0" y="0.0">
        <defs>
          <path id="14-plate-1-MJX-4-NCM-N-31" d="M269 666C228 624 168 603 89 603L89 564C141 564 184 572 217 588L217 82C217 64 213 52 204 47C195 42 170 39 130 39L95 39L95 0C120 2 174 3 257 3C340 3 394 2 419 0L419 39L384 39C343 39 318 42 310 47C302 52 297 64 297 82L297 636C297 660 295 666 269 666Z"/>
        </defs>
        <g stroke="currentColor" fill="currentColor" stroke-width="0" transform="scale(1,-1)">
          <g data-mml-node="math">
            <g data-mml-node="mtext" data-semantic-type="number" data-semantic-role="integer" data-semantic-font="normal" data-semantic-annotation="general:text;clearspeak:simple;nemeth:number;depth:1" data-semantic-id="0" data-semantic-attributes="latex:\text{1}" data-semantic-speech="1">
              <use data-c="31" xlink:href="#14-plate-1-MJX-4-NCM-N-31"/>
            </g>
          </g>
        </g>
      </svg>
    </g>
  </g>
  <g id="14-plate-1-__label-3" transform="translate(14.0,105.0) translate(-9.0,-6.0)">
    <g id="14-plate-1-__g-3">
      <svg xmlns:xlink="http://www.w3.org/1999/xlink" style="vertical-align: 0.000px" width="9.048px" height="12.056px" role="img" focusable="false" viewBox="0 -666 500 666" x="0.0" y="0.0">
        <defs>
          <path id="14-plate-1-MJX-5-NCM-N-31" d="M269 666C228 624 168 603 89 603L89 564C141 564 184 572 217 588L217 82C217 64 213 52 204 47C195 42 170 39 130 39L95 39L95 0C120 2 174 3 257 3C340 3 394 2 419 0L419 39L384 39C343 39 318 42 310 47C302 52 297 64 297 82L297 636C297 660 295 666 269 666Z"/>
        </defs>
        <g stroke="currentColor" fill="currentColor" stroke-width="0" transform="scale(1,-1)">
          <g data-mml-node="math">
            <g data-mml-node="mtext" data-semantic-type="number" data-semantic-role="integer" data-semantic-font="normal" data-semantic-annotation="general:text;clearspeak:simple;nemeth:number;depth:1" data-semantic-id="0" data-semantic-attributes="latex:\text{1}" data-semantic-speech="1">
              <use data-c="31" xlink:href="#14-plate-1-MJX-5-NCM-N-31"/>
            </g>
          </g>
        </g>
      </svg>
    </g>
  </g>
  <g id="14-plate-1-__label-4" transform="translate(14.0,5.0) translate(-9.0,-6.0)">
    <g id="14-plate-1-__g-4">
      <svg xmlns:xlink="http://www.w3.org/1999/xlink" style="vertical-align: 0.000px" width="9.048px" height="12.056px" role="img" focusable="false" viewBox="0 -666 500 666" x="0.0" y="0.0">
        <defs>
          <path id="14-plate-1-MJX-6-NCM-N-32" d="M237 666C186 666 143 648 106 612C69 576 50 534 50 483C50 449 75 424 106 424C136 424 161 450 161 480C161 513 137 536 105 536C102 536 100 536 98 535C117 584 161 627 224 627C306 627 352 556 352 470C352 403 318 331 250 255L62 43C49 28 50 29 50 0L421 0L450 180L417 180C409 129 402 100 396 91C391 86 361 84 306 84L139 84L236 179C304 243 390 312 419 365C439 400 449 435 449 470C449 588 357 666 237 666Z"/>
        </defs>
        <g stroke="currentColor" fill="currentColor" stroke-width="0" transform="scale(1,-1)">
          <g data-mml-node="math">
            <g data-mml-node="mtext" data-semantic-type="number" data-semantic-role="integer" data-semantic-font="normal" data-semantic-annotation="general:text;clearspeak:simple;nemeth:number;depth:1" data-semantic-id="0" data-semantic-attributes="latex:\text{2}" data-semantic-speech="2">
              <use data-c="32" xlink:href="#14-plate-1-MJX-6-NCM-N-32"/>
            </g>
          </g>
        </g>
      </svg>
    </g>
  </g>
  <path id="14-plate-1-__path-0" d="M 25.0 205.0 L 125.0 205.0 L 125.0 5.0 Z" stroke="black" stroke-width="2" fill="#ccc" clip-path="url(#14-plate-1-__clipPath-1)"/>
</svg>
