<svg xmlns="http://www.w3.org/2000/svg" id="18-golf-figure" width="540" height="260" viewBox="0 0 540 260">
  <defs>
    <clipPath id="18-golf-__clipPath-0">
      <rect x="15.0" y="5.0" width="500.0" height="250.0"/>
    </clipPath>
    <clipPath id="18-golf-__clipPath-1">
      <rect x="15.0" y="5.0" width="500.0" height="250.0"/>
    </clipPath>
  </defs>
  <g id="18-golf-axes" stroke="black" stroke-width="2">
    <line id="18-golf-__line-0" x1="15.0" y1="225.6" x2="515.0" y2="225.6" stroke="black" stroke-width="2"/>
    <g id="18-golf-__g-0">
      <line id="18-golf-__line-1" x1="15.0" y1="228.6" x2="15.0" y2="222.6"/>
      <line id="18-golf-__line-2" x1="65.0" y1="228.6" x2="65.0" y2="222.6"/>
      <line id="18-golf-__line-3" x1="115.0" y1="228.6" x2="115.0" y2="222.6"/>
      <line id="18-golf-__line-4" x1="165.0" y1="228.6" x2="165.0" y2="222.6"/>
      <line id="18-golf-__line-5" x1="215.0" y1="228.6" x2="215.0" y2="222.6"/>
      <line id="18-golf-__line-6" x1="265.0" y1="228.6" x2="265.0" y2="222.6"/>
      <line id="18-golf-__line-7" x1="315.0" y1="228.6" x2="315.0" y2="222.6"/>
      <line id="18-golf-__line-8" x1="365.0" y1="228.6" x2="365.0" y2="222.6"/>
      <line id="18-golf-__line-9" x1="415.0" y1="228.6" x2="415.0" y2="222.6"/>
      <line id="18-golf-__line-10" x1="465.0" y1="228.6" x2="465.0" y2="222.6"/>
      <line id="18-golf-__line-11" x1="515.0" y1="228.6" x2="515.0" y2="222.6"/>
      <line id="18-golf-__line-12" x1="15.0" y1="228.6" x2="15.0" y2="222.6"/>
      <line id="18-golf-__line-13" x1="115.0" y1="228.6" x2="115.0" y2="222.6"/>
      <line id="18-golf-__line-14" x1="215.0" y1="228.6" x2="215.0" y2="222.6"/>
      <line id="18-golf-__line-15" x1="315.0" y1="228.6" x2="315.0" y2="222.6"/>
      <line id="18-golf-__line-16" x1="415.0" y1="228.6" x2="415.0" y2="222.6"/>
      <line id="18-golf-__line-17" x1="515.0" y1="228.6" x2="515.0" y2="222.6"/>
    </g>
  </g>
  <g id="18-golf-__label-0" transform="translate(15.0,236.6) translate(-4.5,-0.0)">
    <g id="18-golf-__g-1">
      <svg xmlns:xlink="http://www.w3.org/1999/xlink" style="vertical-align: -0.400px" width="9.048px" height="12.456px" role="img" focusable="false" viewBox="0 -666 500 688" x="0.0" y="0.0">
        <defs>
          <path id="18-golf-MJX-2-NCM-N-30" d="M249-22C390-22 460 92 460 320C460 473 428 575 365 625C330 652 291 666 250 666C109 666 39 551 39 320C39 136 88-22 249-22M361 524C368 489 371 425 371 332C371 240 367 172 360 128C347 48 310 8 249 8C226 8 203 17 182 34C155 57 139 104 132 176C129 201 128 253 128 332C128 419 131 480 136 513C145 568 163 603 191 618C213 630 232 636 249 636C314 636 350 583 361 524Z"/>
        </defs>
        <g stroke="currentColor" fill="currentColor" stroke-width="0" transform="scale(1,-1)">
          <g data-mml-node="math">
            <g data-mml-node="mtext" data-semantic-type="number" data-semantic-role="integer" data-semantic-font="normal" data-semantic-annotation="general:text;clearspeak:simple;nemeth:number;depth:1" data-semantic-id="0" data-semantic-attributes="latex:\text{0}" data-semantic-speech="0">
              <use data-c="30" xlink:href="#18-golf-MJX-2-NCM-N-30"/>
            </g>
          </g>
        </g>
      </svg>
    </g>
  </g>
  <g id="18-golf-__label-1" transform="translate(115.0,236.6) translate(-13.6,-0.0)">
    <g id="18-golf-__g-2">
      <svg xmlns:xlink="http://www.w3.org/1999/xlink" style="vertical-align: -0.400px" width="27.152px" height="12.456px" role="img" focusable="false" viewBox="0 -666 1500 688" x="0.0" y="0.0">
        <defs>
          <path id="18-golf-MJX-3-NCM-N-32" d="M237 666C186 666 143 648 106 612C69 576 50 534 50 483C50 449 75 424 106 424C136 424 161 450 161 480C161 513 137 536 105 536C102 536 100 536 98 535C117 584 161 627 224 627C306 627 352 556 352 470C352 403 318 331 250 255L62 43C49 28 50 29 50 0L421 0L450 180L417 180C409 129 402 100 396 91C391 86 361 84 306 84L139 84L236 179C304 243 390 312 419 365C439 400 449 435 449 470C449 588 357 666 237 666Z"/>
          <path id="18-golf-MJX-3-NCM-N-30" d="M249-22C390-22 460 92 460 320C460 473 428 575 365 625C330 652 291 666 250 666C109 666 39 551 39 320C39 136 88-22 249-22M361 524C368 489 371 425 371 332C371 240 367 172 360 128C347 48 310 8 249 8C226 8 203 17 182 34C155 57 139 104 132 176C129 201 128 253 128 332C128 419 131 480 136 513C145 568 163 603 191 618C213 630 232 636 249 636C314 636 350 583 361 524Z"/>
        </defs>
        <g stroke="currentColor" fill="currentColor" stroke-width="0" transform="scale(1,-1)">
          <g data-mml-node="math">
            <g data-mml-node="mtext" data-semantic-type="text" data-semantic-role="unknown" data-semantic-font="normal" data-semantic-annotation="clearspeak:unit;nemeth:number;depth:1" data-semantic-id="0" data-semantic-attributes="latex:\text{200}" data-semantic-speech="200">
              <use data-c="32" xlink:href="#18-golf-MJX-3-NCM-N-32"/>
              <use data-c="30" xlink:href="#18-golf-MJX-3-NCM-N-30" transform="translate(500,0)"/>
              <use data-c="30" xlink:href="#18-golf-MJX-3-NCM-N-30" transform="translate(1000,0)"/>
            </g>
          </g>
        </g>
      </svg>
    </g>
  </g>
  <g id="18-golf-__label-2" transform="translate(215.0,236.6) translate(-13.6,-0.0)">
    <g id="18-golf-__g-3">
      <svg xmlns:xlink="http://www.w3.org/1999/xlink" style="vertical-align: -0.400px" width="27.152px" height="12.648px" role="img" focusable="false" viewBox="0 -677 1500 699" x="0.0" y="0.0">
        <defs>
          <path id="18-golf-MJX-4-NCM-N-34" d="M353 677C344 677 336 672 330 663L28 199L28 163L289 163L289 81C289 63 285 51 278 46C271 41 252 39 219 39L194 39L194 0C223 2 269 3 331 3C393 3 439 2 468 0L468 39L443 39C410 39 391 41 384 46C377 51 373 63 373 81L373 163L471 163L471 202L373 202L373 660C373 670 366 677 353 677M295 553L295 202L67 202Z"/>
          <path id="18-golf-MJX-4-NCM-N-30" d="M249-22C390-22 460 92 460 320C460 473 428 575 365 625C330 652 291 666 250 666C109 666 39 551 39 320C39 136 88-22 249-22M361 524C368 489 371 425 371 332C371 240 367 172 360 128C347 48 310 8 249 8C226 8 203 17 182 34C155 57 139 104 132 176C129 201 128 253 128 332C128 419 131 480 136 513C145 568 163 603 191 618C213 630 232 636 249 636C314 636 350 583 361 524Z"/>
        </defs>
        <g stroke="currentColor" fill="currentColor" stroke-width="0" transform="scale(1,-1)">
          <g data-mml-node="math">
            <g data-mml-node="mtext" data-semantic-type="text" data-semantic-role="unknown" data-semantic-font="normal" data-semantic-annotation="clearspeak:unit;nemeth:number;depth:1" data-semantic-id="0" data-semantic-attributes="latex:\text{400}" data-semantic-speech="400">
              <use data-c="34" xlink:href="#18-golf-MJX-4-NCM-N-34"/>
              <use data-c="30" xlink:href="#18-golf-MJX-4-NCM-N-30" transform="translate(500,0)"/>
              <use data-c="30" xlink:href="#18-golf-MJX-4-NCM-N-30" transform="translate(1000,0)"/>
            </g>
          </g>
        </g>
      </svg>
    </g>
  </g>
  <g id="18-golf-__label-3" transform="translate(315.0,236.6) translate(-13.6,-0.0)">
    <g id="18-golf-__g-4">
      <svg xmlns:xlink="http://www.w3.org/1999/xlink" style="vertical-align: -0.400px" width="27.152px" height="12.456px" role="img" focusable="false" viewBox="0 -666 1500 688" x="0.0" y="0.0">
        <defs>
          <path id="18-golf-MJX-5-NCM-N-36" d="M383 504C416 504 432 521 432 555C432 627 378 666 304 666C221 666 155 627 106 548C63 480 42 403 42 316C42 189 65 100 112 47C152 1 198-22 251-22C312-22 362 1 401 47C438 91 457 144 457 205C457 266 439 318 403 361C365 407 316 431 257 431C205 431 165 402 138 346L138 352C138 465 166 561 226 605C252 624 279 633 306 633C342 633 368 623 385 602C351 602 334 583 334 553C334 525 355 504 383 504M344 340C355 317 361 272 361 206C361 141 356 98 345 76C325 35 294 14 251 14C222 14 200 24 184 44C171 60 162 74 158 85C146 116 140 163 140 227C140 255 144 282 151 308C164 355 201 399 256 399C295 399 325 379 344 340Z"/>
          <path id="18-golf-MJX-5-NCM-N-30" d="M249-22C390-22 460 92 460 320C460 473 428 575 365 625C330 652 291 666 250 666C109 666 39 551 39 320C39 136 88-22 249-22M361 524C368 489 371 425 371 332C371 240 367 172 360 128C347 48 310 8 249 8C226 8 203 17 182 34C155 57 139 104 132 176C129 201 128 253 128 332C128 419 131 480 136 513C145 568 163 603 191 618C213 630 232 636 249 636C314 636 350 583 361 524Z"/>
        </defs>
        <g stroke="currentColor" fill="currentColor" stroke-width="0" transform="scale(1,-1)">
          <g data-mml-node="math">
            <g data-mml-node="mtext" data-semantic-type="text" data-semantic-role="unknown" data-semantic-font="normal" data-semantic-annotation="clearspeak:unit;nemeth:number;depth:1" data-semantic-id="0" data-semantic-attributes="latex:\text{600}" data-semantic-speech="600">
              <use data-c="36" xlink:href="#18-golf-MJX-5-NCM-N-36"/>
              <use data-c="30" xlink:href="#18-golf-MJX-5-NCM-N-30" transform="translate(500,0)"/>
              <use data-c="30" xlink:href="#18-golf-MJX-5-NCM-N-30" transform="translate(1000,0)"/>
            </g>
          </g>
        </g>
      </svg>
    </g>
  </g>
  <g id="18-golf-__label-4" transform="translate(415.0,236.6) translate(-13.6,-0.0)">
    <g id="18-golf-__g-5">
      <svg xmlns:xlink="http://www.w3.org/1999/xlink" style="vertical-align: -0.400px" width="27.152px" height="12.456px" role="img" focusable="false" viewBox="0 -666 1500 688" x="0.0" y="0.0">
        <defs>
          <path id="18-golf-MJX-6-NCM-N-38" d="M250 666C201 666 158 650 122 618C86 586 68 546 68 497C68 456 83 419 113 386C120 378 142 361 179 335C88 288 42 227 42 153C42 100 64 57 107 24C147-7 194-22 249-22C305-22 354-4 395 32C436 68 457 115 457 170C457 216 441 257 408 294C396 307 365 330 316 361C393 402 431 454 431 515C431 606 344 666 250 666M379 515C379 463 348 418 286 381L167 459C136 479 120 505 120 536C120 596 185 633 249 633C318 633 379 584 379 515M250 14C168 14 99 73 99 153C99 220 136 274 210 315L328 240C376 209 400 174 400 134C400 62 325 14 250 14Z"/>
          <path id="18-golf-MJX-6-NCM-N-30" d="M249-22C390-22 460 92 460 320C460 473 428 575 365 625C330 652 291 666 250 666C109 666 39 551 39 320C39 136 88-22 249-22M361 524C368 489 371 425 371 332C371 240 367 172 360 128C347 48 310 8 249 8C226 8 203 17 182 34C155 57 139 104 132 176C129 201 128 253 128 332C128 419 131 480 136 513C145 568 163 603 191 618C213 630 232 636 249 636C314 636 350 583 361 524Z"/>
        </defs>
        <g stroke="currentColor" fill="currentColor" stroke-width="0" transform="scale(1,-1)">
          <g data-mml-node="math">
            <g data-mml-node="mtext" data-semantic-type="text" data-semantic-role="unknown" data-semantic-font="normal" data-semantic-annotation="clearspeak:unit;nemeth:number;depth:1" data-semantic-id="0" data-semantic-attributes="latex:\text{800}" data-semantic-speech="800">
              <use data-c="38" xlink:href="#18-golf-MJX-6-NCM-N-38"/>
              <use data-c="30" xlink:href="#18-golf-MJX-6-NCM-N-30" transform="translate(500,0)"/>
              <use data-c="30" xlink:href="#18-golf-MJX-6-NCM-N-30" transform="translate(1000,0)"/>
            </g>
          </g>
        </g>
      </svg>
    </g>
  </g>
  <g id="18-golf-__label-5" transform="translate(515.0,236.6) translate(-20.6,-0.0)">
    <g id="18-golf-__g-6">
      <svg xmlns:xlink="http://www.w3.org/1999/xlink" style="vertical-align: -3.496px" width="41.232px" height="15.544px" role="img" focusable="false" viewBox="0 -666 2278 859" x="0.0" y="0.0">
        <defs>
          <path id="18-golf-MJX-7-NCM-N-31" d="M269 666C228 624 168 603 89 603L89 564C141 564 184 572 217 588L217 82C217 64 213 52 204 47C195 42 170 39 130 39L95 39L95 0C120 2 174 3 257 3C340 3 394 2 419 0L419 39L384 39C343 39 318 42 310 47C302 52 297 64 297 82L297 636C297 660 295 666 269 666Z"/>
          <path id="18-golf-MJX-7-NCM-N-2C" d="M139 106C107 106 86 82 86 50C86 20 109-5 139-5C153-5 165-1 174 8L175 0C175-63 154-117 112-160C105-168 101-174 101-178C101-188 105-193 114-193C123-193 135-181 152-158C186-110 203-57 203 0C203 53 185 106 139 106Z"/>
          <path id="18-golf-MJX-7-NCM-N-30" d="M249-22C390-22 460 92 460 320C460 473 428 575 365 625C330 652 291 666 250 666C109 666 39 551 39 320C39 136 88-22 249-22M361 524C368 489 371 425 371 332C371 240 367 172 360 128C347 48 310 8 249 8C226 8 203 17 182 34C155 57 139 104 132 176C129 201 128 253 128 332C128 419 131 480 136 513C145 568 163 603 191 618C213 630 232 636 249 636C314 636 350 583 361 524Z"/>
        </defs>
        <g stroke="currentColor" fill="currentColor" stroke-width="0" transform="scale(1,-1)">
          <g data-mml-node="math">
            <g data-mml-node="mrow" data-semantic-type="punctuated" data-semantic-role="text" data-semantic-annotation="depth:1" data-semantic-id="3" data-semantic-children="0,1" data-semantic-attributes="latex:\text{1{,}000}" data-semantic-collapsed="(3 (c 2) 0 1)" data-semantic-speech="1 comma 000">
              <g data-mml-node="mtext" data-semantic-type="text" data-semantic-role="unknown" data-semantic-font="normal" data-semantic-annotation="clearspeak:unit;nemeth:number;depth:2" data-semantic-id="0" data-semantic-parent="3" data-semantic-speech="1 comma">
                <use data-c="31" xlink:href="#18-golf-MJX-7-NCM-N-31"/>
                <use data-c="2C" xlink:href="#18-golf-MJX-7-NCM-N-2C" transform="translate(500,0)"/>
              </g>
              <g data-mml-node="mtext" data-semantic-type="text" data-semantic-role="unknown" data-semantic-font="normal" data-semantic-annotation="clearspeak:unit;nemeth:number;depth:2" data-semantic-id="1" data-semantic-parent="3" data-semantic-speech="000" transform="translate(778,0)">
                <use data-c="30" xlink:href="#18-golf-MJX-7-NCM-N-30"/>
                <use data-c="30" xlink:href="#18-golf-MJX-7-NCM-N-30" transform="translate(500,0)"/>
                <use data-c="30" xlink:href="#18-golf-MJX-7-NCM-N-30" transform="translate(1000,0)"/>
              </g>
            </g>
          </g>
        </g>
      </svg>
    </g>
  </g>
  <g id="18-golf-__group-0">
    <line id="18-golf-__line-18-k_1" x1="65.0" y1="166.8" x2="65.0" y2="5.0" stroke="#ccc" stroke-width="2" fill="none"/>
    <g id="18-golf-__label-6-k_1" transform="translate(69.0,85.9) translate(0.0,-5.1)">
      <g id="18-golf-__g-7">
        <text font-family="sans-serif" font-size="14" x="0.0" y="10.2">80</text>
      </g>
    </g>
    <line id="18-golf-__line-19-k_2" x1="115.0" y1="184.4" x2="115.0" y2="30.0" stroke="#ccc" stroke-width="2" fill="none"/>
    <g id="18-golf-__label-7-k_2" transform="translate(119.0,107.2) translate(0.0,-5.1)">
      <g id="18-golf-__g-8">
        <text font-family="sans-serif" font-size="14" x="0.0" y="10.1">85</text>
      </g>
    </g>
    <line id="18-golf-__line-20-k_3" x1="165.0" y1="193.2" x2="165.0" y2="46.2" stroke="#ccc" stroke-width="2" fill="none"/>
    <g id="18-golf-__label-8-k_3" transform="translate(169.0,119.7) translate(0.0,-5.1)">
      <g id="18-golf-__g-9">
        <text font-family="sans-serif" font-size="14" x="0.0" y="10.1">95</text>
      </g>
    </g>
    <line id="18-golf-__line-21-k_4" x1="215.0" y1="207.9" x2="215.0" y2="60.9" stroke="#ccc" stroke-width="2" fill="none"/>
    <g id="18-golf-__label-9-k_4" transform="translate(219.0,134.4) translate(0.0,-5.1)">
      <g id="18-golf-__g-10">
        <text font-family="sans-serif" font-size="14" x="0.0" y="10.2">110</text>
      </g>
    </g>
    <line id="18-golf-__line-22-k_5" x1="265.0" y1="203.5" x2="265.0" y2="49.1" stroke="#ccc" stroke-width="2" fill="none"/>
    <g id="18-golf-__label-10-k_5" transform="translate(269.0,126.3) translate(0.0,-5.1)">
      <g id="18-golf-__g-11">
        <text font-family="sans-serif" font-size="14" x="0.0" y="10.2">105</text>
      </g>
    </g>
    <line id="18-golf-__line-23-k_6" x1="315.0" y1="193.2" x2="315.0" y2="31.5" stroke="#ccc" stroke-width="2" fill="none"/>
    <g id="18-golf-__label-11-k_6" transform="translate(319.0,112.4) translate(0.0,-5.1)">
      <g id="18-golf-__g-12">
        <text font-family="sans-serif" font-size="14" x="0.0" y="10.2">100</text>
      </g>
    </g>
    <line id="18-golf-__line-24-k_7" x1="365.0" y1="181.5" x2="365.0" y2="41.8" stroke="#ccc" stroke-width="2" fill="none"/>
    <g id="18-golf-__label-12-k_7" transform="translate(369.0,111.6) translate(0.0,-5.1)">
      <g id="18-golf-__g-13">
        <text font-family="sans-serif" font-size="14" x="0.0" y="10.2">100</text>
      </g>
    </g>
    <line id="18-golf-__line-25-k_8" x1="415.0" y1="188.8" x2="415.0" y2="63.8" stroke="#ccc" stroke-width="2" fill="none"/>
    <g id="18-golf-__label-13-k_8" transform="translate(419.0,126.3) translate(0.0,-5.1)">
      <g id="18-golf-__g-14">
        <text font-family="sans-serif" font-size="14" x="0.0" y="10.2">105</text>
      </g>
    </g>
    <line id="18-golf-__line-26-k_9" x1="465.0" y1="184.4" x2="465.0" y2="66.8" stroke="#ccc" stroke-width="2" fill="none"/>
    <g id="18-golf-__label-14-k_9" transform="translate(469.0,125.6) translate(0.0,-5.1)">
      <g id="18-golf-__g-15">
        <text font-family="sans-serif" font-size="14" x="0.0" y="10.2">110</text>
      </g>
    </g>
  </g>
  <path id="18-golf-__path-1" d="M 15.0 122.6 L 15.0 122.6 L 16.0 123.9 L 17.0 125.1 L 18.0 126.3 L 19.0 127.5 L 20.0 128.7 L 21.0 129.8 L 22.0 131.0 L 23.0 132.1 L 24.0 133.2 L 25.0 134.3 L 26.0 135.4 L 27.0 136.5 L 28.0 137.5 L 29.0 138.5 L 30.0 139.6 L 31.0 140.6 L 32.0 141.5 L 33.0 142.5 L 34.0 143.5 L 35.0 144.4 L 36.0 145.4 L 37.0 146.3 L 38.0 147.2 L 39.0 148.1 L 40.0 149.0 L 41.0 149.8 L 42.0 150.7 L 43.0 151.5 L 44.0 152.3 L 45.0 153.1 L 46.0 153.9 L 47.0 154.7 L 48.0 155.5 L 49.0 156.3 L 50.0 157.0 L 51.0 157.7 L 52.0 158.5 L 53.0 159.2 L 54.0 159.9 L 55.0 160.6 L 56.0 161.2 L 57.0 161.9 L 58.0 162.5 L 59.0 163.2 L 60.0 163.8 L 61.0 164.4 L 62.0 165.0 L 63.0 165.6 L 64.0 166.2 L 65.1 166.8 L 66.1 167.4 L 67.1 167.9 L 68.1 168.5 L 69.1 169.0 L 70.1 169.5 L 71.1 170.0 L 72.1 170.5 L 73.1 171.0 L 74.1 171.5 L 75.1 172.0 L 76.1 172.4 L 77.1 172.9 L 78.1 173.3 L 79.1 173.8 L 80.1 174.2 L 81.1 174.6 L 82.1 175.0 L 83.1 175.4 L 84.1 175.8 L 85.1 176.2 L 86.1 176.6 L 87.1 176.9 L 88.1 177.3 L 89.1 177.7 L 90.1 178.0 L 91.1 178.3 L 92.1 178.7 L 93.1 179.0 L 94.1 179.3 L 95.1 179.6 L 96.1 179.9 L 97.1 180.2 L 98.1 180.5 L 99.1 180.8 L 100.1 181.0 L 101.1 181.3 L 102.1 181.6 L 103.1 181.8 L 104.1 182.1 L 105.1 182.3 L 106.1 182.5 L 107.1 182.8 L 108.1 183.0 L 109.1 183.2 L 110.1 183.4 L 111.1 183.6 L 112.1 183.8 L 113.1 184.0 L 114.1 184.2 L 115.1 184.4 L 116.1 184.6 L 117.1 184.8 L 118.1 185.0 L 119.1 185.1 L 120.1 185.3 L 121.1 185.5 L 122.1 185.6 L 123.1 185.8 L 124.1 185.9 L 125.1 186.1 L 126.1 186.3 L 127.1 186.4 L 128.1 186.6 L 129.1 186.7 L 130.1 186.8 L 131.1 187.0 L 132.1 187.1 L 133.1 187.3 L 134.1 187.4 L 135.1 187.6 L 136.1 187.7 L 137.1 187.9 L 138.1 188.0 L 139.1 188.2 L 140.1 188.3 L 141.1 188.5 L 142.1 188.6 L 143.1 188.8 L 144.1 188.9 L 145.1 189.1 L 146.1 189.2 L 147.1 189.4 L 148.1 189.6 L 149.1 189.8 L 150.1 189.9 L 151.1 190.1 L 152.1 190.3 L 153.1 190.5 L 154.1 190.7 L 155.1 190.9 L 156.1 191.1 L 157.1 191.3 L 158.1 191.5 L 159.1 191.8 L 160.1 192.0 L 161.1 192.2 L 162.1 192.5 L 163.1 192.7 L 164.1 193.0 L 165.2 193.3 L 166.2 193.6 L 167.2 193.8 L 168.2 194.1 L 169.2 194.4 L 170.2 194.7 L 171.2 195.1 L 172.2 195.4 L 173.2 195.7 L 174.2 196.0 L 175.2 196.4 L 176.2 196.7 L 177.2 197.0 L 178.2 197.4 L 179.2 197.7 L 180.2 198.1 L 181.2 198.4 L 182.2 198.8 L 183.2 199.1 L 184.2 199.5 L 185.2 199.8 L 186.2 200.2 L 187.2 200.5 L 188.2 200.8 L 189.2 201.2 L 190.2 201.5 L 191.2 201.9 L 192.2 202.2 L 193.2 202.5 L 194.2 202.9 L 195.2 203.2 L 196.2 203.5 L 197.2 203.8 L 198.2 204.1 L 199.2 204.4 L 200.2 204.7 L 201.2 205.0 L 202.2 205.3 L 203.2 205.5 L 204.2 205.8 L 205.2 206.1 L 206.2 206.3 L 207.2 206.5 L 208.2 206.7 L 209.2 207.0 L 210.2 207.2 L 211.2 207.3 L 212.2 207.5 L 213.2 207.7 L 214.2 207.8 L 215.2 208.0 L 216.2 208.1 L 217.2 208.2 L 218.2 208.3 L 219.2 208.4 L 220.2 208.4 L 221.2 208.5 L 222.2 208.6 L 223.2 208.6 L 224.2 208.6 L 225.2 208.6 L 226.2 208.6 L 227.2 208.6 L 228.2 208.6 L 229.2 208.6 L 230.2 208.5 L 231.2 208.5 L 232.2 208.4 L 233.2 208.4 L 234.2 208.3 L 235.2 208.2 L 236.2 208.1 L 237.2 208.0 L 238.2 207.9 L 239.2 207.8 L 240.2 207.7 L 241.2 207.5 L 242.2 207.4 L 243.2 207.3 L 244.2 207.1 L 245.2 207.0 L 246.2 206.8 L 247.2 206.7 L 248.2 206.5 L 249.2 206.4 L 250.2 206.2 L 251.2 206.0 L 252.2 205.9 L 253.2 205.7 L 254.2 205.5 L 255.2 205.3 L 256.2 205.1 L 257.2 205.0 L 258.2 204.8 L 259.2 204.6 L 260.2 204.4 L 261.2 204.2 L 262.2 204.0 L 263.2 203.9 L 264.2 203.7 L 265.3 203.5 L 266.3 203.3 L 267.3 203.1 L 268.3 202.9 L 269.3 202.8 L 270.3 202.6 L 271.3 202.4 L 272.3 202.2 L 273.3 202.1 L 274.3 201.9 L 275.3 201.7 L 276.3 201.5 L 277.3 201.3 L 278.3 201.2 L 279.3 201.0 L 280.3 200.8 L 281.3 200.6 L 282.3 200.5 L 283.3 200.3 L 284.3 200.1 L 285.3 199.9 L 286.3 199.7 L 287.3 199.5 L 288.3 199.3 L 289.3 199.2 L 290.3 199.0 L 291.3 198.8 L 292.3 198.6 L 293.3 198.4 L 294.3 198.2 L 295.3 198.0 L 296.3 197.8 L 297.3 197.6 L 298.3 197.3 L 299.3 197.1 L 300.3 196.9 L 301.3 196.7 L 302.3 196.5 L 303.3 196.2 L 304.3 196.0 L 305.3 195.8 L 306.3 195.5 L 307.3 195.3 L 308.3 195.0 L 309.3 194.8 L 310.3 194.5 L 311.3 194.3 L 312.3 194.0 L 313.3 193.7 L 314.3 193.4 L 315.3 193.1 L 316.3 192.9 L 317.3 192.6 L 318.3 192.3 L 319.3 192.0 L 320.3 191.7 L 321.3 191.4 L 322.3 191.0 L 323.3 190.7 L 324.3 190.4 L 325.2 190.1 L 326.2 189.8 L 327.2 189.5 L 328.2 189.2 L 329.2 188.8 L 330.2 188.5 L 331.2 188.2 L 332.2 187.9 L 333.2 187.6 L 334.2 187.3 L 335.2 187.0 L 336.2 186.7 L 337.2 186.4 L 338.2 186.1 L 339.2 185.8 L 340.2 185.5 L 341.2 185.2 L 342.2 185.0 L 343.2 184.7 L 344.2 184.4 L 345.2 184.2 L 346.2 184.0 L 347.2 183.7 L 348.2 183.5 L 349.2 183.3 L 350.2 183.1 L 351.2 182.9 L 352.2 182.7 L 353.2 182.5 L 354.2 182.4 L 355.2 182.2 L 356.2 182.1 L 357.2 182.0 L 358.2 181.8 L 359.3 181.7 L 360.3 181.7 L 361.3 181.6 L 362.3 181.5 L 363.3 181.5 L 364.3 181.5 L 365.4 181.5 L 366.4 181.5 L 367.4 181.5 L 368.4 181.5 L 369.4 181.6 L 370.5 181.7 L 371.5 181.7 L 372.5 181.8 L 373.6 181.9 L 374.6 182.1 L 375.6 182.2 L 376.6 182.3 L 377.7 182.5 L 378.7 182.6 L 379.7 182.8 L 380.7 183.0 L 381.8 183.1 L 382.8 183.3 L 383.8 183.5 L 384.8 183.7 L 385.9 183.9 L 386.9 184.1 L 387.9 184.3 L 388.9 184.5 L 389.9 184.7 L 390.9 185.0 L 392.0 185.2 L 393.0 185.4 L 394.0 185.6 L 395.0 185.8 L 396.0 186.0 L 397.0 186.2 L 398.0 186.4 L 399.0 186.6 L 400.0 186.8 L 401.0 187.0 L 402.0 187.2 L 402.9 187.4 L 403.9 187.5 L 404.9 187.7 L 405.9 187.9 L 406.8 188.0 L 407.8 188.2 L 408.8 188.3 L 409.7 188.4 L 410.7 188.5 L 411.6 188.6 L 412.6 188.7 L 413.5 188.7 L 414.4 188.8 L 415.4 188.8 L 416.3 188.9 L 417.2 188.9 L 418.1 188.9 L 419.0 188.9 L 420.0 188.8 L 420.9 188.8 L 421.8 188.7 L 422.7 188.7 L 423.6 188.6 L 424.5 188.5 L 425.4 188.4 L 426.3 188.3 L 427.2 188.2 L 428.1 188.1 L 429.0 188.0 L 429.9 187.9 L 430.8 187.8 L 431.7 187.6 L 432.7 187.5 L 433.6 187.4 L 434.5 187.2 L 435.4 187.1 L 436.4 186.9 L 437.3 186.8 L 438.3 186.6 L 439.2 186.5 L 440.2 186.3 L 441.2 186.2 L 442.2 186.0 L 443.2 185.9 L 444.2 185.7 L 445.2 185.6 L 446.2 185.5 L 447.2 185.3 L 448.3 185.2 L 449.3 185.1 L 450.4 185.0 L 451.5 184.9 L 452.6 184.8 L 453.7 184.7 L 454.8 184.6 L 455.9 184.6 L 457.1 184.5 L 458.2 184.5 L 459.4 184.4 L 460.6 184.4 L 461.8 184.4 L 463.1 184.4 L 464.3 184.4 L 465.6 184.4 L 466.9 184.5 L 468.2 184.5 L 469.5 184.6 L 470.8 184.7 L 472.1 184.7 L 473.5 184.8 L 474.9 184.9 L 476.2 185.0 L 477.6 185.1 L 478.9 185.2 L 480.3 185.2 L 481.7 185.3 L 483.0 185.4 L 484.4 185.4 L 485.7 185.5 L 487.1 185.5 L 488.4 185.5 L 489.7 185.5 L 491.0 185.5 L 492.3 185.5 L 493.6 185.4 L 494.9 185.3 L 496.1 185.2 L 497.3 185.1 L 498.5 184.9 L 499.6 184.7 L 500.8 184.5 L 501.9 184.2 L 502.9 183.9 L 504.0 183.6 L 505.0 183.2 L 505.9 182.8 L 506.9 182.3 L 507.8 181.8 L 508.6 181.2 L 509.4 180.6 L 510.2 180.0 L 510.9 179.3 L 511.5 178.5 L 512.1 177.7 L 512.7 176.8 L 513.2 175.9 L 513.6 174.9 L 514.0 173.8 L 514.3 172.7 L 514.6 171.5 L 514.8 170.2 L 514.9 168.9 L 515.0 167.5 L 515.0 166.0 L 514.9 164.5 L 514.8 162.9 L 514.6 161.2 L 514.3 159.4 L 514.0 157.6 L 513.6 155.7 L 513.2 153.8 L 512.7 151.9 L 512.1 149.8 L 511.5 147.8 L 510.9 145.7 L 510.2 143.5 L 509.4 141.4 L 508.6 139.2 L 507.8 136.9 L 506.9 134.7 L 505.9 132.4 L 505.0 130.1 L 504.0 127.8 L 502.9 125.4 L 501.9 123.1 L 500.8 120.8 L 499.6 118.4 L 498.5 116.1 L 497.3 113.8 L 496.1 111.4 L 494.9 109.1 L 493.6 106.8 L 492.3 104.5 L 491.0 102.3 L 489.7 100.0 L 488.4 97.8 L 487.1 95.6 L 485.7 93.5 L 484.4 91.3 L 483.0 89.3 L 481.7 87.2 L 480.3 85.2 L 478.9 83.3 L 477.6 81.4 L 476.2 79.6 L 474.9 77.8 L 473.5 76.1 L 472.1 74.4 L 470.8 72.9 L 469.5 71.4 L 468.2 69.9 L 466.9 68.6 L 465.6 67.3 L 464.3 66.1 L 463.1 65.0 L 461.8 64.0 L 460.6 63.1 L 459.4 62.2 L 458.2 61.4 L 457.1 60.7 L 455.9 60.1 L 454.8 59.5 L 453.7 59.0 L 452.6 58.5 L 451.5 58.1 L 450.4 57.8 L 449.3 57.5 L 448.3 57.3 L 447.2 57.1 L 446.2 57.0 L 445.2 56.9 L 444.2 56.9 L 443.2 56.9 L 442.2 56.9 L 441.2 57.0 L 440.2 57.1 L 439.2 57.3 L 438.3 57.4 L 437.3 57.6 L 436.4 57.8 L 435.4 58.1 L 434.5 58.4 L 433.6 58.6 L 432.7 58.9 L 431.7 59.2 L 430.8 59.5 L 429.9 59.8 L 429.0 60.2 L 428.1 60.5 L 427.2 60.8 L 426.3 61.1 L 425.4 61.4 L 424.5 61.7 L 423.6 62.0 L 422.7 62.3 L 421.8 62.6 L 420.9 62.8 L 420.0 63.1 L 419.0 63.3 L 418.1 63.4 L 417.2 63.6 L 416.3 63.7 L 415.4 63.8 L 414.4 63.9 L 413.5 63.9 L 412.6 63.8 L 411.6 63.8 L 410.7 63.7 L 409.7 63.6 L 408.8 63.5 L 407.8 63.3 L 406.8 63.1 L 405.9 62.8 L 404.9 62.6 L 403.9 62.3 L 402.9 62.0 L 402.0 61.6 L 401.0 61.3 L 400.0 60.9 L 399.0 60.5 L 398.0 60.1 L 397.0 59.7 L 396.0 59.2 L 395.0 58.7 L 394.0 58.2 L 393.0 57.7 L 392.0 57.2 L 390.9 56.7 L 389.9 56.1 L 388.9 55.6 L 387.9 55.0 L 386.9 54.4 L 385.9 53.9 L 384.8 53.3 L 383.8 52.7 L 382.8 52.1 L 381.8 51.5 L 380.7 50.9 L 379.7 50.2 L 378.7 49.6 L 377.7 49.0 L 376.6 48.4 L 375.6 47.8 L 374.6 47.2 L 373.6 46.6 L 372.5 46.0 L 371.5 45.4 L 370.5 44.8 L 369.4 44.2 L 368.4 43.6 L 367.4 43.1 L 366.4 42.5 L 365.4 42.0 L 364.3 41.4 L 363.3 40.9 L 362.3 40.4 L 361.3 39.9 L 360.3 39.4 L 359.3 38.9 L 358.2 38.5 L 357.2 38.0 L 356.2 37.6 L 355.2 37.2 L 354.2 36.8 L 353.2 36.4 L 352.2 36.0 L 351.2 35.7 L 350.2 35.3 L 349.2 35.0 L 348.2 34.6 L 347.2 34.3 L 346.2 34.0 L 345.2 33.7 L 344.2 33.5 L 343.2 33.2 L 342.2 32.9 L 341.2 32.7 L 340.2 32.5 L 339.2 32.3 L 338.2 32.1 L 337.2 31.9 L 336.2 31.7 L 335.2 31.6 L 334.2 31.5 L 333.2 31.3 L 332.2 31.2 L 331.2 31.1 L 330.2 31.0 L 329.2 31.0 L 328.2 30.9 L 327.2 30.9 L 326.2 30.8 L 325.2 30.8 L 324.3 30.8 L 323.3 30.8 L 322.3 30.8 L 321.3 30.9 L 320.3 30.9 L 319.3 31.0 L 318.3 31.1 L 317.3 31.2 L 316.3 31.3 L 315.3 31.4 L 314.3 31.6 L 313.3 31.7 L 312.3 31.9 L 311.3 32.1 L 310.3 32.3 L 309.3 32.5 L 308.3 32.7 L 307.3 32.9 L 306.3 33.2 L 305.3 33.4 L 304.3 33.7 L 303.3 34.0 L 302.3 34.3 L 301.3 34.6 L 300.3 34.9 L 299.3 35.2 L 298.3 35.5 L 297.3 35.8 L 296.3 36.2 L 295.3 36.5 L 294.3 36.9 L 293.3 37.3 L 292.3 37.6 L 291.3 38.0 L 290.3 38.4 L 289.3 38.8 L 288.3 39.2 L 287.3 39.6 L 286.3 40.0 L 285.3 40.4 L 284.3 40.8 L 283.3 41.2 L 282.3 41.6 L 281.3 42.1 L 280.3 42.5 L 279.3 42.9 L 278.3 43.4 L 277.3 43.8 L 276.3 44.2 L 275.3 44.7 L 274.3 45.1 L 273.3 45.5 L 272.3 46.0 L 271.3 46.4 L 270.3 46.9 L 269.3 47.3 L 268.3 47.7 L 267.3 48.2 L 266.3 48.6 L 265.3 49.0 L 264.2 49.4 L 263.2 49.9 L 262.2 50.3 L 261.2 50.7 L 260.2 51.1 L 259.2 51.5 L 258.2 51.9 L 257.2 52.3 L 256.2 52.7 L 255.2 53.1 L 254.2 53.5 L 253.2 53.9 L 252.2 54.2 L 251.2 54.6 L 250.2 54.9 L 249.2 55.3 L 248.2 55.6 L 247.2 56.0 L 246.2 56.3 L 245.2 56.6 L 244.2 56.9 L 243.2 57.2 L 242.2 57.5 L 241.2 57.8 L 240.2 58.1 L 239.2 58.3 L 238.2 58.6 L 237.2 58.8 L 236.2 59.1 L 235.2 59.3 L 234.2 59.5 L 233.2 59.7 L 232.2 59.9 L 231.2 60.0 L 230.2 60.2 L 229.2 60.3 L 228.2 60.5 L 227.2 60.6 L 226.2 60.7 L 225.2 60.8 L 224.2 60.9 L 223.2 60.9 L 222.2 61.0 L 221.2 61.0 L 220.2 61.0 L 219.2 61.0 L 218.2 61.0 L 217.2 61.0 L 216.2 61.0 L 215.2 60.9 L 214.2 60.8 L 213.2 60.7 L 212.2 60.6 L 211.2 60.5 L 210.2 60.3 L 209.2 60.2 L 208.2 60.0 L 207.2 59.8 L 206.2 59.6 L 205.2 59.4 L 204.2 59.2 L 203.2 58.9 L 202.2 58.7 L 201.2 58.4 L 200.2 58.2 L 199.2 57.9 L 198.2 57.6 L 197.2 57.3 L 196.2 57.0 L 195.2 56.7 L 194.2 56.4 L 193.2 56.0 L 192.2 55.7 L 191.2 55.4 L 190.2 55.0 L 189.2 54.7 L 188.2 54.3 L 187.2 54.0 L 186.2 53.6 L 185.2 53.2 L 184.2 52.9 L 183.2 52.5 L 182.2 52.1 L 181.2 51.8 L 180.2 51.4 L 179.2 51.0 L 178.2 50.7 L 177.2 50.3 L 176.2 49.9 L 175.2 49.6 L 174.2 49.2 L 173.2 48.9 L 172.2 48.5 L 171.2 48.2 L 170.2 47.8 L 169.2 47.5 L 168.2 47.2 L 167.2 46.8 L 166.2 46.5 L 165.2 46.2 L 164.1 45.9 L 163.1 45.6 L 162.1 45.3 L 161.1 45.1 L 160.1 44.8 L 159.1 44.5 L 158.1 44.3 L 157.1 44.0 L 156.1 43.7 L 155.1 43.5 L 154.1 43.2 L 153.1 43.0 L 152.1 42.8 L 151.1 42.5 L 150.1 42.3 L 149.1 42.0 L 148.1 41.8 L 147.1 41.5 L 146.1 41.3 L 145.1 41.1 L 144.1 40.8 L 143.1 40.6 L 142.1 40.3 L 141.1 40.0 L 140.1 39.8 L 139.1 39.5 L 138.1 39.2 L 137.1 38.9 L 136.1 38.7 L 135.1 38.4 L 134.1 38.1 L 133.1 37.7 L 132.1 37.4 L 131.1 37.1 L 130.1 36.7 L 129.1 36.4 L 128.1 36.0 L 127.1 35.7 L 126.1 35.3 L 125.1 34.9 L 124.1 34.5 L 123.1 34.0 L 122.1 33.6 L 121.1 33.1 L 120.1 32.7 L 119.1 32.2 L 118.1 31.7 L 117.1 31.2 L 116.1 30.6 L 115.1 30.1 L 114.1 29.5 L 113.1 28.9 L 112.1 28.3 L 111.1 27.7 L 110.1 27.0 L 109.1 26.4 L 108.1 25.7 L 107.1 25.0 L 106.1 24.4 L 105.1 23.7 L 104.1 23.0 L 103.1 22.3 L 102.1 21.6 L 101.1 20.9 L 100.1 20.2 L 99.1 19.5 L 98.1 18.8 L 97.1 18.1 L 96.1 17.4 L 95.1 16.7 L 94.1 16.0 L 93.1 15.3 L 92.1 14.7 L 91.1 14.0 L 90.1 13.4 L 89.1 12.8 L 88.1 12.1 L 87.1 11.5 L 86.1 11.0 L 85.1 10.4 L 84.1 9.9 L 83.1 9.3 L 82.1 8.8 L 81.1 8.4 L 80.1 7.9 L 79.1 7.5 L 78.1 7.1 L 77.1 6.7 L 76.1 6.4 L 75.1 6.1 L 74.1 5.8 L 73.1 5.6 L 72.1 5.4 L 71.1 5.2 L 70.1 5.0 L 69.1 5.0 L 68.1 4.9 L 67.1 4.9 L 66.1 4.9 L 65.1 5.0 L 64.0 5.1 L 63.0 5.3 L 62.0 5.5 L 61.0 5.8 L 60.0 6.1 L 59.0 6.4 L 58.0 6.9 L 57.0 7.3 L 56.0 7.9 L 55.0 8.4 L 54.0 9.1 L 53.0 9.8 L 52.0 10.6 L 51.0 11.4 L 50.0 12.3 L 49.0 13.2 L 48.0 14.3 L 47.0 15.3 L 46.0 16.5 L 45.0 17.7 L 44.0 19.0 L 43.0 20.4 L 42.0 21.8 L 41.0 23.3 L 40.0 24.9 L 39.0 26.6 L 38.0 28.4 L 37.0 30.2 L 36.0 32.1 L 35.0 34.1 L 34.0 36.2 L 33.0 38.3 L 32.0 40.6 L 31.0 42.9 L 30.0 45.3 L 29.0 47.8 L 28.0 50.4 L 27.0 53.1 L 26.0 55.9 L 25.0 58.8 L 24.0 61.8 L 23.0 64.9 L 22.0 68.1 L 21.0 71.4 L 20.0 74.7 L 19.0 78.2 L 18.0 81.8 L 17.0 85.5 L 16.0 89.3 L 15.0 93.2 Z" stroke="black" stroke-width="2" fill="none"/>
</svg>
